<svg width="26" height="20" viewBox="0 0 26 20" fill="none" xmlns="http://www.w3.org/2000/svg">
<g id="Frame">
<g clip-path="url(#clip0_113_9704)">
<path id="Vector" d="M15.8438 0.0468531C15.1797 -0.144553 14.4883 0.242166 14.2969 0.906228L9.29688 18.4062C9.10547 19.0703 9.49219 19.7617 10.1562 19.9531C10.8203 20.1445 11.5117 19.7578 11.7031 19.0937L16.7031 1.59373C16.8945 0.929666 16.5078 0.238259 15.8438 0.0468531ZM18.9922 4.73826C18.5039 5.22654 18.5039 6.01951 18.9922 6.50779L22.4805 9.99998L18.9883 13.4922C18.5 13.9804 18.5 14.7734 18.9883 15.2617C19.4766 15.75 20.2695 15.75 20.7578 15.2617L25.1328 10.8867C25.6211 10.3984 25.6211 9.60545 25.1328 9.11717L20.7578 4.74217C20.2695 4.25388 19.4766 4.25388 18.9883 4.74217L18.9922 4.73826ZM7.01172 4.73826C6.52344 4.24998 5.73047 4.24998 5.24219 4.73826L0.867188 9.11326C0.378906 9.60154 0.378906 10.3945 0.867188 10.8828L5.24219 15.2578C5.73047 15.7461 6.52344 15.7461 7.01172 15.2578C7.5 14.7695 7.5 13.9765 7.01172 13.4883L3.51953 9.99998L7.01172 6.50779C7.5 6.01951 7.5 5.22654 7.01172 4.73826Z" fill="#059669"/>
</g>
</g>
<defs>
<clipPath id="clip0_113_9704">
<path d="M0.5 0H25.5V20H0.5V0Z" fill="white"/>
</clipPath>
</defs>
</svg>
