<svg width="20" height="20" viewBox="0 0 20 20" fill="none" xmlns="http://www.w3.org/2000/svg">
<g id="Frame">
<g clip-path="url(#clip0_113_9674)">
<path id="Vector" d="M18.3323 0.753906L19.2464 1.66797C20.223 2.64453 20.223 4.22656 19.2464 5.20312L17.0433 7.40625L12.5902 2.95703L14.7933 0.753906C15.7698 -0.222656 17.3519 -0.222656 18.3284 0.753906H18.3323ZM1.75422 13.7969L11.7073 3.83984L16.1605 8.29297L6.20343 18.2461C5.94172 18.5078 5.61359 18.6992 5.25812 18.8008L1.19562 19.9609C0.867497 20.0547 0.515934 19.9648 0.273747 19.7227C0.0315593 19.4805 -0.0582845 19.1289 0.0354655 18.8008L1.19562 14.7383C1.29718 14.3789 1.48859 14.0547 1.75031 13.793L1.75422 13.7969ZM9.7425 4.03906L4.03937 9.74219L0.625309 6.32422C-0.10516 5.59375 -0.10516 4.40625 0.625309 3.67188L3.67609 0.625C4.40656 -0.105469 5.59406 -0.105469 6.32843 0.625L7.10187 1.39844C7.09015 1.41016 7.07453 1.42188 7.06281 1.43359L4.56281 3.93359C4.32062 4.17578 4.32062 4.57422 4.56281 4.81641C4.805 5.05859 5.20343 5.05859 5.44562 4.81641L7.94562 2.31641C7.95734 2.30469 7.96906 2.28906 7.98078 2.27734L9.7425 4.03906ZM15.9612 10.2578L17.723 12.0195C17.7112 12.0313 17.6956 12.043 17.6839 12.0547L15.1839 14.5547C14.9417 14.7969 14.9417 15.1953 15.1839 15.4375C15.4261 15.6797 15.8245 15.6797 16.0667 15.4375L18.5667 12.9375C18.5784 12.9258 18.5902 12.9102 18.6019 12.8984L19.3753 13.6758C20.1058 14.4063 20.1058 15.5938 19.3753 16.3281L16.3245 19.375C15.5941 20.1055 14.4066 20.1055 13.6722 19.375L10.2581 15.9609L15.9612 10.2578Z" fill="#7C3AED"/>
</g>
</g>
<defs>
<clipPath id="clip0_113_9674">
<path d="M0 0H20V20H0V0Z" fill="white"/>
</clipPath>
</defs>
</svg>
