<svg width="16" height="20" viewBox="0 0 16 20" fill="none" xmlns="http://www.w3.org/2000/svg">
<g id="Frame">
<path d="M0.5 0H15.5V20H0.5V0Z" stroke="#E5E7EB"/>
<path id="Vector" d="M11.125 15C11.5 13.7539 12.2773 12.6914 13.0469 11.6328C13.25 11.3555 13.4531 11.0781 13.6484 10.7969C14.4219 9.68359 14.875 8.33594 14.875 6.87891C14.875 3.07813 11.7969 0 8 0C4.20313 0 1.125 3.07813 1.125 6.875C1.125 8.33203 1.57813 9.68359 2.35156 10.793C2.54688 11.0742 2.75 11.3516 2.95312 11.6289C3.72656 12.6875 4.50391 13.7539 4.875 14.9961H11.125V15ZM8 20C9.72656 20 11.125 18.6016 11.125 16.875V16.25H4.875V16.875C4.875 18.6016 6.27344 20 8 20ZM4.875 6.875C4.875 7.21875 4.59375 7.5 4.25 7.5C3.90625 7.5 3.625 7.21875 3.625 6.875C3.625 4.45703 5.58203 2.5 8 2.5C8.34375 2.5 8.625 2.78125 8.625 3.125C8.625 3.46875 8.34375 3.75 8 3.75C6.27344 3.75 4.875 5.14844 4.875 6.875Z" fill="#2563EB"/>
</g>
</svg>
