<svg width="20" height="20" viewBox="0 0 20 20" fill="none" xmlns="http://www.w3.org/2000/svg">
<g id="Frame">
<g clip-path="url(#clip0_113_9710)">
<path id="Vector" d="M6.11674 15.0352L4.90971 13.8281C4.57767 13.4961 4.46049 13.0156 4.60892 12.5703C4.72611 12.2227 4.88236 11.7696 5.06986 11.25H0.93705C0.601112 11.25 0.288612 11.0703 0.120643 10.7774C-0.0473254 10.4844 -0.0434192 10.125 0.128456 9.83596L2.17924 6.37893C2.68705 5.52346 3.60502 5.00002 4.59721 5.00002H7.81205C7.9058 4.84377 7.99955 4.69924 8.0933 4.55862C11.2925 -0.160134 16.0581 -0.316384 18.9019 0.207054C19.355 0.289085 19.7066 0.644554 19.7925 1.09768C20.316 3.94533 20.1558 8.70705 15.441 11.9063C15.3042 12 15.1558 12.0938 14.9995 12.1875V15.4024C14.9995 16.3946 14.4761 17.3164 13.6206 17.8203L10.1636 19.8711C9.87455 20.043 9.51517 20.0469 9.22221 19.8789C8.92924 19.711 8.74955 19.4024 8.74955 19.0625V14.875C8.19877 15.0664 7.7183 15.2227 7.35502 15.3399C6.91752 15.4805 6.44096 15.3594 6.11283 15.0352H6.11674ZM14.9995 6.56252C15.414 6.56252 15.8114 6.3979 16.1044 6.10488C16.3974 5.81185 16.562 5.41442 16.562 5.00002C16.562 4.58562 16.3974 4.18819 16.1044 3.89517C15.8114 3.60214 15.414 3.43752 14.9995 3.43752C14.5851 3.43752 14.1877 3.60214 13.8947 3.89517C13.6017 4.18819 13.437 4.58562 13.437 5.00002C13.437 5.41442 13.6017 5.81185 13.8947 6.10488C14.1877 6.3979 14.5851 6.56252 14.9995 6.56252Z" fill="#EA580C"/>
</g>
</g>
<defs>
<clipPath id="clip0_113_9710">
<path d="M0 0H20V20H0V0Z" fill="white"/>
</clipPath>
</defs>
</svg>
